<?xml version="1.0" encoding="UTF-8" standalone="no"?>
<!DOCTYPE svg PUBLIC "-//W3C//DTD SVG 1.1//EN"
 "http://www.w3.org/Graphics/SVG/1.1/DTD/svg11.dtd">
<!-- Generated by graphviz version 2.38.0 (20140413.2041)
 -->
<!-- Title: G Pages: 1 -->
<svg width="773pt" height="1870pt"
 viewBox="0.00 0.00 773.00 1870.00" xmlns="http://www.w3.org/2000/svg" xmlns:xlink="http://www.w3.org/1999/xlink">
<g id="graph0" class="graph" transform="scale(1 1) rotate(0) translate(4 1866)">
<title>G</title>
<polygon fill="white" stroke="none" points="-4,4 -4,-1866 769,-1866 769,4 -4,4"/>
<g id="clust1" class="cluster"><title>cluster_Global</title>
<path fill="none" stroke="gray" d="M20,-44C20,-44 745,-44 745,-44 751,-44 757,-50 757,-56 757,-56 757,-1842 757,-1842 757,-1848 751,-1854 745,-1854 745,-1854 20,-1854 20,-1854 14,-1854 8,-1848 8,-1842 8,-1842 8,-56 8,-56 8,-50 14,-44 20,-44"/>
<text text-anchor="middle" x="382.5" y="-1841.2" font-family="Times New Roman,serif" font-size="11.00" fill="gray">Global</text>
</g>
<g id="clust2" class="cluster"><title>cluster_\CryptoManana</title>
<path fill="none" stroke="gray" d="M28,-52C28,-52 737,-52 737,-52 743,-52 749,-58 749,-64 749,-64 749,-1814 749,-1814 749,-1820 743,-1826 737,-1826 737,-1826 28,-1826 28,-1826 22,-1826 16,-1820 16,-1814 16,-1814 16,-64 16,-64 16,-58 22,-52 28,-52"/>
<text text-anchor="middle" x="382.5" y="-1813.2" font-family="Times New Roman,serif" font-size="11.00" fill="gray">CryptoManana</text>
</g>
<g id="clust3" class="cluster"><title>cluster_\CryptoManana\Core</title>
<path fill="none" stroke="gray" d="M36,-60C36,-60 729,-60 729,-60 735,-60 741,-66 741,-72 741,-72 741,-1006 741,-1006 741,-1012 735,-1018 729,-1018 729,-1018 36,-1018 36,-1018 30,-1018 24,-1012 24,-1006 24,-1006 24,-72 24,-72 24,-66 30,-60 36,-60"/>
<text text-anchor="middle" x="382.5" y="-1005.2" font-family="Times New Roman,serif" font-size="11.00" fill="gray">Core</text>
</g>
<g id="clust4" class="cluster"><title>cluster_\CryptoManana\Core\Abstractions</title>
<path fill="none" stroke="gray" d="M81,-68C81,-68 467,-68 467,-68 473,-68 479,-74 479,-80 479,-80 479,-378 479,-378 479,-384 473,-390 467,-390 467,-390 81,-390 81,-390 75,-390 69,-384 69,-378 69,-378 69,-80 69,-80 69,-74 75,-68 81,-68"/>
<text text-anchor="middle" x="274" y="-377.2" font-family="Times New Roman,serif" font-size="11.00" fill="gray">Abstractions</text>
</g>
<g id="clust5" class="cluster"><title>cluster_\CryptoManana\Core\Abstractions\DesignPatterns</title>
<path fill="none" stroke="gray" d="M336,-236C336,-236 459,-236 459,-236 465,-236 471,-242 471,-248 471,-248 471,-350 471,-350 471,-356 465,-362 459,-362 459,-362 336,-362 336,-362 330,-362 324,-356 324,-350 324,-350 324,-248 324,-248 324,-242 330,-236 336,-236"/>
<text text-anchor="middle" x="397.5" y="-349.2" font-family="Times New Roman,serif" font-size="11.00" fill="gray">DesignPatterns</text>
</g>
<g id="clust6" class="cluster"><title>cluster_\CryptoManana\Core\Abstractions\ErrorHandling</title>
<path fill="none" stroke="gray" d="M336,-76C336,-76 459,-76 459,-76 465,-76 471,-82 471,-88 471,-88 471,-136 471,-136 471,-142 465,-148 459,-148 459,-148 336,-148 336,-148 330,-148 324,-142 324,-136 324,-136 324,-88 324,-88 324,-82 330,-76 336,-76"/>
<text text-anchor="middle" x="397.5" y="-135.2" font-family="Times New Roman,serif" font-size="11.00" fill="gray">ErrorHandling</text>
</g>
<g id="clust7" class="cluster"><title>cluster_\CryptoManana\Core\Abstractions\Randomness</title>
<path fill="none" stroke="gray" d="M89,-156C89,-156 459,-156 459,-156 465,-156 471,-162 471,-168 471,-168 471,-216 471,-216 471,-222 465,-228 459,-228 459,-228 89,-228 89,-228 83,-228 77,-222 77,-216 77,-216 77,-168 77,-168 77,-162 83,-156 89,-156"/>
<text text-anchor="middle" x="274" y="-215.2" font-family="Times New Roman,serif" font-size="11.00" fill="gray">Randomness</text>
</g>
<g id="clust8" class="cluster"><title>cluster_\CryptoManana\Core\Interfaces</title>
<path fill="none" stroke="gray" d="M44,-398C44,-398 264,-398 264,-398 270,-398 276,-404 276,-410 276,-410 276,-978 276,-978 276,-984 270,-990 264,-990 264,-990 44,-990 44,-990 38,-990 32,-984 32,-978 32,-978 32,-410 32,-410 32,-404 38,-398 44,-398"/>
<text text-anchor="middle" x="154" y="-977.2" font-family="Times New Roman,serif" font-size="11.00" fill="gray">Interfaces</text>
</g>
<g id="clust9" class="cluster"><title>cluster_\CryptoManana\Core\Interfaces\DesignPatterns</title>
<path fill="none" stroke="gray" d="M52,-836C52,-836 256,-836 256,-836 262,-836 268,-842 268,-848 268,-848 268,-950 268,-950 268,-956 262,-962 256,-962 256,-962 52,-962 52,-962 46,-962 40,-956 40,-950 40,-950 40,-848 40,-848 40,-842 46,-836 52,-836"/>
<text text-anchor="middle" x="154" y="-949.2" font-family="Times New Roman,serif" font-size="11.00" fill="gray">DesignPatterns</text>
</g>
<g id="clust10" class="cluster"><title>cluster_\CryptoManana\Core\Interfaces\ErrorHandling</title>
<path fill="none" stroke="gray" d="M62,-406C62,-406 246,-406 246,-406 252,-406 258,-412 258,-418 258,-418 258,-466 258,-466 258,-472 252,-478 246,-478 246,-478 62,-478 62,-478 56,-478 50,-472 50,-466 50,-466 50,-418 50,-418 50,-412 56,-406 62,-406"/>
<text text-anchor="middle" x="154" y="-465.2" font-family="Times New Roman,serif" font-size="11.00" fill="gray">ErrorHandling</text>
</g>
<g id="clust11" class="cluster"><title>cluster_\CryptoManana\Core\Interfaces\Randomness</title>
<path fill="none" stroke="gray" d="M55,-486C55,-486 253,-486 253,-486 259,-486 265,-492 265,-498 265,-498 265,-816 265,-816 265,-822 259,-828 253,-828 253,-828 55,-828 55,-828 49,-828 43,-822 43,-816 43,-816 43,-498 43,-498 43,-492 49,-486 55,-486"/>
<text text-anchor="middle" x="154" y="-815.2" font-family="Times New Roman,serif" font-size="11.00" fill="gray">Randomness</text>
</g>
<g id="clust12" class="cluster"><title>cluster_\CryptoManana\Core\Traits</title>
<path fill="none" stroke="gray" d="M534,-531C534,-531 721,-531 721,-531 727,-531 733,-537 733,-543 733,-543 733,-897 733,-897 733,-903 727,-909 721,-909 721,-909 534,-909 534,-909 528,-909 522,-903 522,-897 522,-897 522,-543 522,-543 522,-537 528,-531 534,-531"/>
<text text-anchor="middle" x="627.5" y="-896.2" font-family="Times New Roman,serif" font-size="11.00" fill="gray">Traits</text>
</g>
<g id="clust13" class="cluster"><title>cluster_\CryptoManana\Core\Traits\Randomness</title>
<path fill="none" stroke="gray" d="M542,-539C542,-539 713,-539 713,-539 719,-539 725,-545 725,-551 725,-551 725,-869 725,-869 725,-875 719,-881 713,-881 713,-881 542,-881 542,-881 536,-881 530,-875 530,-869 530,-869 530,-551 530,-551 530,-545 536,-539 542,-539"/>
<text text-anchor="middle" x="627.5" y="-868.2" font-family="Times New Roman,serif" font-size="11.00" fill="gray">Randomness</text>
</g>
<g id="clust14" class="cluster"><title>cluster_\CryptoManana\Exceptions</title>
<path fill="none" stroke="gray" d="M539,-1160C539,-1160 716,-1160 716,-1160 722,-1160 728,-1166 728,-1172 728,-1172 728,-1598 728,-1598 728,-1604 722,-1610 716,-1610 716,-1610 539,-1610 539,-1610 533,-1610 527,-1604 527,-1598 527,-1598 527,-1172 527,-1172 527,-1166 533,-1160 539,-1160"/>
<text text-anchor="middle" x="627.5" y="-1597.2" font-family="Times New Roman,serif" font-size="11.00" fill="gray">Exceptions</text>
</g>
<g id="clust15" class="cluster"><title>cluster_\CryptoManana\Factories</title>
<path fill="none" stroke="gray" d="M566,-1026C566,-1026 689,-1026 689,-1026 695,-1026 701,-1032 701,-1038 701,-1038 701,-1140 701,-1140 701,-1146 695,-1152 689,-1152 689,-1152 566,-1152 566,-1152 560,-1152 554,-1146 554,-1140 554,-1140 554,-1038 554,-1038 554,-1032 560,-1026 566,-1026"/>
<text text-anchor="middle" x="627.5" y="-1139.2" font-family="Times New Roman,serif" font-size="11.00" fill="gray">Factories</text>
</g>
<g id="clust16" class="cluster"><title>cluster_\CryptoManana\Randomness</title>
<path fill="none" stroke="gray" d="M582.5,-1618C582.5,-1618 672.5,-1618 672.5,-1618 678.5,-1618 684.5,-1624 684.5,-1630 684.5,-1630 684.5,-1786 684.5,-1786 684.5,-1792 678.5,-1798 672.5,-1798 672.5,-1798 582.5,-1798 582.5,-1798 576.5,-1798 570.5,-1792 570.5,-1786 570.5,-1786 570.5,-1630 570.5,-1630 570.5,-1624 576.5,-1618 582.5,-1618"/>
<text text-anchor="middle" x="627.5" y="-1785.2" font-family="Times New Roman,serif" font-size="11.00" fill="gray">Randomness</text>
</g>
<!-- \\CryptoManana\\Core\\Abstractions\\DesignPatterns\\AbstractFactory -->
<g id="node1" class="node"><title>\\CryptoManana\\Core\\Abstractions\\DesignPatterns\\AbstractFactory</title>
<polygon fill="none" stroke="black" points="456.5,-334 338.5,-334 338.5,-298 456.5,-298 456.5,-334"/>
<text text-anchor="start" x="363.5" y="-319.2" font-family="Courier,monospace" font-size="11.00">«abstract»</text>
<text text-anchor="start" x="346.5" y="-307.2" font-family="Courier,monospace" font-size="11.00">AbstractFactory</text>
</g>
<!-- \\CryptoManana\\Core\\Interfaces\\DesignPatterns\\StaticCallInstancingInterface -->
<g id="node7" class="node"><title>\\CryptoManana\\Core\\Interfaces\\DesignPatterns\\StaticCallInstancingInterface</title>
<polygon fill="none" stroke="black" points="260,-880 48,-880 48,-844 260,-844 260,-880"/>
<text text-anchor="middle" x="154" y="-859.2" font-family="Courier,monospace" font-size="11.00">StaticCallInstancingInterface</text>
</g>
<!-- \\CryptoManana\\Core\\Abstractions\\DesignPatterns\\AbstractFactory&#45;&gt;\\CryptoManana\\Core\\Interfaces\\DesignPatterns\\StaticCallInstancingInterface -->
<g id="edge1" class="edge"><title>\\CryptoManana\\Core\\Abstractions\\DesignPatterns\\AbstractFactory&#45;&gt;\\CryptoManana\\Core\\Interfaces\\DesignPatterns\\StaticCallInstancingInterface</title>
<path fill="none" stroke="black" stroke-dasharray="1,5" d="M338.269,-326.486C332.842,-329.451 327.919,-333.218 324,-338 254.09,-423.308 348.087,-748.523 276,-832 273.63,-834.745 271.051,-837.259 268.302,-839.561"/>
<polygon fill="none" stroke="black" points="266.162,-836.789 260.132,-845.501 270.279,-842.451 266.162,-836.789"/>
</g>
<!-- \\CryptoManana\\Core\\Abstractions\\DesignPatterns\\AbstractSingleton -->
<g id="node2" class="node"><title>\\CryptoManana\\Core\\Abstractions\\DesignPatterns\\AbstractSingleton</title>
<polygon fill="none" stroke="black" points="463,-280 332,-280 332,-244 463,-244 463,-280"/>
<text text-anchor="start" x="363.5" y="-265.2" font-family="Courier,monospace" font-size="11.00">«abstract»</text>
<text text-anchor="start" x="340" y="-253.2" font-family="Courier,monospace" font-size="11.00">AbstractSingleton</text>
</g>
<!-- \\CryptoManana\\Core\\Abstractions\\ErrorHandling\\AbstractException -->
<g id="node3" class="node"><title>\\CryptoManana\\Core\\Abstractions\\ErrorHandling\\AbstractException</title>
<polygon fill="none" stroke="black" points="463,-120 332,-120 332,-84 463,-84 463,-120"/>
<text text-anchor="start" x="363.5" y="-105.2" font-family="Courier,monospace" font-size="11.00">«abstract»</text>
<text text-anchor="start" x="340" y="-93.2" font-family="Courier,monospace" font-size="11.00">AbstractException</text>
</g>
<!-- \\CryptoManana\\Core\\Interfaces\\ErrorHandling\\EditableExceptionInterface -->
<g id="node8" class="node"><title>\\CryptoManana\\Core\\Interfaces\\ErrorHandling\\EditableExceptionInterface</title>
<polygon fill="none" stroke="black" points="250,-450 58,-450 58,-414 250,-414 250,-450"/>
<text text-anchor="middle" x="154" y="-429.2" font-family="Courier,monospace" font-size="11.00">EditableExceptionInterface</text>
</g>
<!-- \\CryptoManana\\Core\\Abstractions\\ErrorHandling\\AbstractException&#45;&gt;\\CryptoManana\\Core\\Interfaces\\ErrorHandling\\EditableExceptionInterface -->
<g id="edge3" class="edge"><title>\\CryptoManana\\Core\\Abstractions\\ErrorHandling\\AbstractException&#45;&gt;\\CryptoManana\\Core\\Interfaces\\ErrorHandling\\EditableExceptionInterface</title>
<path fill="none" stroke="black" stroke-dasharray="1,5" d="M364.249,-120.041C350.788,-128.582 335.615,-139.625 324,-152 295.623,-182.233 297.399,-196.484 276,-232 238.737,-293.847 194.823,-366.333 171.502,-404.795"/>
<polygon fill="none" stroke="black" points="168.226,-403.448 166.033,-413.813 174.211,-407.077 168.226,-403.448"/>
</g>
<!-- \\Exception -->
<g id="node35" class="node"><title>\\Exception</title>
<ellipse fill="none" stroke="black" cx="154" cy="-18" rx="50.0912" ry="18"/>
<text text-anchor="middle" x="154" y="-14.3" font-family="Times New Roman,serif" font-size="14.00" fill="gray">\Exception</text>
</g>
<!-- \\CryptoManana\\Core\\Abstractions\\ErrorHandling\\AbstractException&#45;&gt;\\Exception -->
<g id="edge2" class="edge"><title>\\CryptoManana\\Core\\Abstractions\\ErrorHandling\\AbstractException&#45;&gt;\\Exception</title>
<path fill="none" stroke="black" d="M344.692,-83.9799C301.709,-69.0291 241.197,-47.9817 200.164,-33.7093"/>
<polygon fill="none" stroke="black" points="201.285,-30.3934 190.69,-30.4139 198.985,-37.0049 201.285,-30.3934"/>
</g>
<!-- \\CryptoManana\\Core\\Abstractions\\Randomness\\AbstractGenerator -->
<g id="node4" class="node"><title>\\CryptoManana\\Core\\Abstractions\\Randomness\\AbstractGenerator</title>
<polygon fill="none" stroke="black" points="463,-200 332,-200 332,-164 463,-164 463,-200"/>
<text text-anchor="start" x="363.5" y="-185.2" font-family="Courier,monospace" font-size="11.00">«abstract»</text>
<text text-anchor="start" x="340" y="-173.2" font-family="Courier,monospace" font-size="11.00">AbstractGenerator</text>
</g>
<!-- \\CryptoManana\\Core\\Abstractions\\Randomness\\AbstractRandomness -->
<g id="node5" class="node"><title>\\CryptoManana\\Core\\Abstractions\\Randomness\\AbstractRandomness</title>
<polygon fill="none" stroke="black" points="223,-200 85,-200 85,-164 223,-164 223,-200"/>
<text text-anchor="start" x="120" y="-185.2" font-family="Courier,monospace" font-size="11.00">«abstract»</text>
<text text-anchor="start" x="93" y="-173.2" font-family="Courier,monospace" font-size="11.00">AbstractRandomness</text>
</g>
<!-- \\CryptoManana\\Core\\Abstractions\\Randomness\\AbstractGenerator&#45;&gt;\\CryptoManana\\Core\\Abstractions\\Randomness\\AbstractRandomness -->
<g id="edge4" class="edge"><title>\\CryptoManana\\Core\\Abstractions\\Randomness\\AbstractGenerator&#45;&gt;\\CryptoManana\\Core\\Abstractions\\Randomness\\AbstractRandomness</title>
<path fill="none" stroke="black" d="M331.782,-182C301.525,-182 265.236,-182 233.431,-182"/>
<polygon fill="none" stroke="black" points="233.276,-178.5 223.276,-182 233.276,-185.5 233.276,-178.5"/>
</g>
<!-- \\CryptoManana\\Core\\Interfaces\\Randomness\\ArbitraryBaseOutputInterface -->
<g id="node9" class="node"><title>\\CryptoManana\\Core\\Interfaces\\Randomness\\ArbitraryBaseOutputInterface</title>
<polygon fill="none" stroke="black" points="257,-530 51,-530 51,-494 257,-494 257,-530"/>
<text text-anchor="middle" x="154" y="-509.2" font-family="Courier,monospace" font-size="11.00">ArbitraryBaseOutputInterface</text>
</g>
<!-- \\CryptoManana\\Core\\Abstractions\\Randomness\\AbstractGenerator&#45;&gt;\\CryptoManana\\Core\\Interfaces\\Randomness\\ArbitraryBaseOutputInterface -->
<g id="edge6" class="edge"><title>\\CryptoManana\\Core\\Abstractions\\Randomness\\AbstractGenerator&#45;&gt;\\CryptoManana\\Core\\Interfaces\\Randomness\\ArbitraryBaseOutputInterface</title>
<path fill="none" stroke="black" stroke-dasharray="1,5" d="M358.99,-200.1C346.027,-208.143 332.609,-218.813 324,-232 262.151,-326.739 353.841,-399.893 276,-482 272.815,-485.36 269.317,-488.367 265.582,-491.059"/>
<polygon fill="none" stroke="black" points="263.629,-488.152 257.052,-496.458 267.373,-494.067 263.629,-488.152"/>
</g>
<!-- \\CryptoManana\\Core\\Interfaces\\Randomness\\FloatOutputInterface -->
<g id="node10" class="node"><title>\\CryptoManana\\Core\\Interfaces\\Randomness\\FloatOutputInterface</title>
<polygon fill="none" stroke="black" points="230,-746 78,-746 78,-710 230,-710 230,-746"/>
<text text-anchor="middle" x="154" y="-725.2" font-family="Courier,monospace" font-size="11.00">FloatOutputInterface</text>
</g>
<!-- \\CryptoManana\\Core\\Abstractions\\Randomness\\AbstractGenerator&#45;&gt;\\CryptoManana\\Core\\Interfaces\\Randomness\\FloatOutputInterface -->
<g id="edge5" class="edge"><title>\\CryptoManana\\Core\\Abstractions\\Randomness\\AbstractGenerator&#45;&gt;\\CryptoManana\\Core\\Interfaces\\Randomness\\FloatOutputInterface</title>
<path fill="none" stroke="black" stroke-dasharray="1,5" d="M357.602,-200.178C344.811,-208.125 331.867,-218.711 324,-232 270.629,-322.153 345.602,-622.695 276,-701 266.415,-711.783 253.554,-718.771 239.789,-723.211"/>
<polygon fill="none" stroke="black" points="238.841,-719.842 230.144,-725.893 240.717,-726.586 238.841,-719.842"/>
</g>
<!-- \\CryptoManana\\Core\\Interfaces\\Randomness\\IdentifierOutputInterface -->
<g id="node11" class="node"><title>\\CryptoManana\\Core\\Interfaces\\Randomness\\IdentifierOutputInterface</title>
<polygon fill="none" stroke="black" points="246.5,-692 61.5,-692 61.5,-656 246.5,-656 246.5,-692"/>
<text text-anchor="middle" x="154" y="-671.2" font-family="Courier,monospace" font-size="11.00">IdentifierOutputInterface</text>
</g>
<!-- \\CryptoManana\\Core\\Abstractions\\Randomness\\AbstractGenerator&#45;&gt;\\CryptoManana\\Core\\Interfaces\\Randomness\\IdentifierOutputInterface -->
<g id="edge8" class="edge"><title>\\CryptoManana\\Core\\Abstractions\\Randomness\\AbstractGenerator&#45;&gt;\\CryptoManana\\Core\\Interfaces\\Randomness\\IdentifierOutputInterface</title>
<path fill="none" stroke="black" stroke-dasharray="1,5" d="M358.078,-200C345.174,-207.979 332.033,-218.632 324,-232 228.363,-391.149 400.263,-509.038 276,-647 270.254,-653.38 263.361,-658.427 255.817,-662.401"/>
<polygon fill="none" stroke="black" points="254.32,-659.237 246.693,-666.591 257.241,-665.599 254.32,-659.237"/>
</g>
<!-- \\CryptoManana\\Core\\Interfaces\\Randomness\\RgbOutputInterface -->
<g id="node12" class="node"><title>\\CryptoManana\\Core\\Interfaces\\Randomness\\RgbOutputInterface</title>
<polygon fill="none" stroke="black" points="223,-638 85,-638 85,-602 223,-602 223,-638"/>
<text text-anchor="middle" x="154" y="-617.2" font-family="Courier,monospace" font-size="11.00">RgbOutputInterface</text>
</g>
<!-- \\CryptoManana\\Core\\Abstractions\\Randomness\\AbstractGenerator&#45;&gt;\\CryptoManana\\Core\\Interfaces\\Randomness\\RgbOutputInterface -->
<g id="edge9" class="edge"><title>\\CryptoManana\\Core\\Abstractions\\Randomness\\AbstractGenerator&#45;&gt;\\CryptoManana\\Core\\Interfaces\\Randomness\\RgbOutputInterface</title>
<path fill="none" stroke="black" stroke-dasharray="1,5" d="M358.201,-200.075C345.311,-208.062 332.147,-218.701 324,-232 239.452,-370.019 385.343,-473.662 276,-593 264.802,-605.222 249.39,-612.534 233.313,-616.784"/>
<polygon fill="none" stroke="black" points="232.236,-613.439 223.249,-619.051 233.774,-620.268 232.236,-613.439"/>
</g>
<!-- \\CryptoManana\\Core\\Interfaces\\Randomness\\StringOutputInterface -->
<g id="node14" class="node"><title>\\CryptoManana\\Core\\Interfaces\\Randomness\\StringOutputInterface</title>
<polygon fill="none" stroke="black" points="233,-584 75,-584 75,-548 233,-548 233,-584"/>
<text text-anchor="middle" x="154" y="-563.2" font-family="Courier,monospace" font-size="11.00">StringOutputInterface</text>
</g>
<!-- \\CryptoManana\\Core\\Abstractions\\Randomness\\AbstractGenerator&#45;&gt;\\CryptoManana\\Core\\Interfaces\\Randomness\\StringOutputInterface -->
<g id="edge7" class="edge"><title>\\CryptoManana\\Core\\Abstractions\\Randomness\\AbstractGenerator&#45;&gt;\\CryptoManana\\Core\\Interfaces\\Randomness\\StringOutputInterface</title>
<path fill="none" stroke="black" stroke-dasharray="1,5" d="M358.366,-200.177C345.494,-208.176 332.298,-218.795 324,-232 250.517,-348.929 370.456,-438.252 276,-539 266.967,-548.635 255.313,-555.202 242.813,-559.618"/>
<polygon fill="none" stroke="black" points="241.653,-556.313 233.119,-562.592 243.706,-563.006 241.653,-556.313"/>
</g>
<!-- \\CryptoManana\\Core\\Interfaces\\DesignPatterns\\CoreStringBuilderInterface -->
<g id="node6" class="node"><title>\\CryptoManana\\Core\\Interfaces\\DesignPatterns\\CoreStringBuilderInterface</title>
<polygon fill="none" stroke="black" points="250,-934 58,-934 58,-898 250,-898 250,-934"/>
<text text-anchor="middle" x="154" y="-913.2" font-family="Courier,monospace" font-size="11.00">CoreStringBuilderInterface</text>
</g>
<!-- \\CryptoManana\\Core\\Interfaces\\Randomness\\SeedableGeneratorInterface -->
<g id="node13" class="node"><title>\\CryptoManana\\Core\\Interfaces\\Randomness\\SeedableGeneratorInterface</title>
<polygon fill="none" stroke="black" points="250,-800 58,-800 58,-764 250,-764 250,-800"/>
<text text-anchor="middle" x="154" y="-779.2" font-family="Courier,monospace" font-size="11.00">SeedableGeneratorInterface</text>
</g>
<!-- \\CryptoManana\\Core\\Traits\\Randomness\\ArbitraryBaseOutputTrait -->
<g id="node15" class="node"><title>\\CryptoManana\\Core\\Traits\\Randomness\\ArbitraryBaseOutputTrait</title>
<polygon fill="none" stroke="black" points="717,-853 538,-853 538,-817 717,-817 717,-853"/>
<text text-anchor="middle" x="627.5" y="-832.2" font-family="Courier,monospace" font-size="11.00">ArbitraryBaseOutputTrait</text>
</g>
<!-- \\CryptoManana\\Core\\Traits\\Randomness\\FloatOutputTrait -->
<g id="node16" class="node"><title>\\CryptoManana\\Core\\Traits\\Randomness\\FloatOutputTrait</title>
<polygon fill="none" stroke="black" points="690,-799 565,-799 565,-763 690,-763 690,-799"/>
<text text-anchor="middle" x="627.5" y="-778.2" font-family="Courier,monospace" font-size="11.00">FloatOutputTrait</text>
</g>
<!-- \\CryptoManana\\Core\\Traits\\Randomness\\IdentifierOutputTrait -->
<g id="node17" class="node"><title>\\CryptoManana\\Core\\Traits\\Randomness\\IdentifierOutputTrait</title>
<polygon fill="none" stroke="black" points="706.5,-745 548.5,-745 548.5,-709 706.5,-709 706.5,-745"/>
<text text-anchor="middle" x="627.5" y="-724.2" font-family="Courier,monospace" font-size="11.00">IdentifierOutputTrait</text>
</g>
<!-- \\CryptoManana\\Core\\Traits\\Randomness\\RandomnessTrait -->
<g id="node18" class="node"><title>\\CryptoManana\\Core\\Traits\\Randomness\\RandomnessTrait</title>
<polygon fill="none" stroke="black" points="686.5,-691 568.5,-691 568.5,-655 686.5,-655 686.5,-691"/>
<text text-anchor="middle" x="627.5" y="-670.2" font-family="Courier,monospace" font-size="11.00">RandomnessTrait</text>
</g>
<!-- \\CryptoManana\\Core\\Traits\\Randomness\\RgbOutputTrait -->
<g id="node19" class="node"><title>\\CryptoManana\\Core\\Traits\\Randomness\\RgbOutputTrait</title>
<polygon fill="none" stroke="black" points="683,-637 572,-637 572,-601 683,-601 683,-637"/>
<text text-anchor="middle" x="627.5" y="-616.2" font-family="Courier,monospace" font-size="11.00">RgbOutputTrait</text>
</g>
<!-- \\CryptoManana\\Core\\Traits\\Randomness\\StringOutputTrait -->
<g id="node20" class="node"><title>\\CryptoManana\\Core\\Traits\\Randomness\\StringOutputTrait</title>
<polygon fill="none" stroke="black" points="693,-583 562,-583 562,-547 693,-547 693,-583"/>
<text text-anchor="middle" x="627.5" y="-562.2" font-family="Courier,monospace" font-size="11.00">StringOutputTrait</text>
</g>
<!-- \\CryptoManana\\Core\\StringBuilder -->
<g id="node21" class="node"><title>\\CryptoManana\\Core\\StringBuilder</title>
<polygon fill="none" stroke="black" points="679.5,-361 575.5,-361 575.5,-325 679.5,-325 679.5,-361"/>
<text text-anchor="middle" x="627.5" y="-340.2" font-family="Courier,monospace" font-size="11.00">StringBuilder</text>
</g>
<!-- \\CryptoManana\\Core\\StringBuilder&#45;&gt;\\CryptoManana\\Core\\Abstractions\\DesignPatterns\\AbstractSingleton -->
<g id="edge10" class="edge"><title>\\CryptoManana\\Core\\StringBuilder&#45;&gt;\\CryptoManana\\Core\\Abstractions\\DesignPatterns\\AbstractSingleton</title>
<path fill="none" stroke="black" d="M578.124,-324.911C549.39,-314.262 512.196,-300.641 479,-289 473.784,-287.171 468.368,-285.298 462.924,-283.434"/>
<polygon fill="none" stroke="black" points="463.724,-280.009 453.13,-280.099 461.468,-286.635 463.724,-280.009"/>
</g>
<!-- \\CryptoManana\\Core\\StringBuilder&#45;&gt;\\CryptoManana\\Core\\Interfaces\\DesignPatterns\\CoreStringBuilderInterface -->
<g id="edge11" class="edge"><title>\\CryptoManana\\Core\\StringBuilder&#45;&gt;\\CryptoManana\\Core\\Interfaces\\DesignPatterns\\CoreStringBuilderInterface</title>
<path fill="none" stroke="black" stroke-dasharray="1,5" d="M616.043,-361.023C563.46,-451.402 328.402,-852.389 276,-889 270.847,-892.6 265.296,-895.73 259.503,-898.45"/>
<polygon fill="none" stroke="black" points="258.057,-895.262 250.225,-902.397 260.797,-901.703 258.057,-895.262"/>
</g>
<!-- \\CryptoManana\\Exceptions\\AccessDeniedException -->
<g id="node22" class="node"><title>\\CryptoManana\\Exceptions\\AccessDeniedException</title>
<polygon fill="none" stroke="black" points="706.5,-1582 548.5,-1582 548.5,-1546 706.5,-1546 706.5,-1582"/>
<text text-anchor="middle" x="627.5" y="-1561.2" font-family="Courier,monospace" font-size="11.00">AccessDeniedException</text>
</g>
<!-- \\CryptoManana\\Exceptions\\AccessDeniedException&#45;&gt;\\CryptoManana\\Core\\Abstractions\\ErrorHandling\\AbstractException -->
<g id="edge12" class="edge"><title>\\CryptoManana\\Exceptions\\AccessDeniedException&#45;&gt;\\CryptoManana\\Core\\Abstractions\\ErrorHandling\\AbstractException</title>
<path fill="none" stroke="black" d="M548.359,-1555.98C538.177,-1551.72 528.904,-1545.63 522,-1537 425.85,-1416.75 555.904,-285.381 479,-152 472.837,-141.31 463.375,-132.593 453.077,-125.609"/>
<polygon fill="none" stroke="black" points="454.625,-122.45 444.284,-120.145 450.931,-128.396 454.625,-122.45"/>
</g>
<!-- \\CryptoManana\\Exceptions\\BadPracticeException -->
<g id="node23" class="node"><title>\\CryptoManana\\Exceptions\\BadPracticeException</title>
<polygon fill="none" stroke="black" points="703.5,-1528 551.5,-1528 551.5,-1492 703.5,-1492 703.5,-1528"/>
<text text-anchor="middle" x="627.5" y="-1507.2" font-family="Courier,monospace" font-size="11.00">BadPracticeException</text>
</g>
<!-- \\CryptoManana\\Exceptions\\BadPracticeException&#45;&gt;\\CryptoManana\\Core\\Abstractions\\ErrorHandling\\AbstractException -->
<g id="edge13" class="edge"><title>\\CryptoManana\\Exceptions\\BadPracticeException&#45;&gt;\\CryptoManana\\Core\\Abstractions\\ErrorHandling\\AbstractException</title>
<path fill="none" stroke="black" d="M551.239,-1503.12C539.935,-1498.83 529.554,-1492.43 522,-1483 429.522,-1367.49 552.989,-280.139 479,-152 472.83,-141.314 463.366,-132.598 453.067,-125.615"/>
<polygon fill="none" stroke="black" points="454.615,-122.456 444.274,-120.151 450.921,-128.402 454.615,-122.456"/>
</g>
<!-- \\CryptoManana\\Exceptions\\BotDetectedException -->
<g id="node24" class="node"><title>\\CryptoManana\\Exceptions\\BotDetectedException</title>
<polygon fill="none" stroke="black" points="703.5,-1474 551.5,-1474 551.5,-1438 703.5,-1438 703.5,-1474"/>
<text text-anchor="middle" x="627.5" y="-1453.2" font-family="Courier,monospace" font-size="11.00">BotDetectedException</text>
</g>
<!-- \\CryptoManana\\Exceptions\\BotDetectedException&#45;&gt;\\CryptoManana\\Core\\Abstractions\\ErrorHandling\\AbstractException -->
<g id="edge14" class="edge"><title>\\CryptoManana\\Exceptions\\BotDetectedException&#45;&gt;\\CryptoManana\\Core\\Abstractions\\ErrorHandling\\AbstractException</title>
<path fill="none" stroke="black" d="M551.25,-1449.11C539.944,-1444.82 529.56,-1438.43 522,-1429 433.194,-1318.24 550.074,-274.897 479,-152 472.823,-141.319 463.356,-132.604 453.056,-125.621"/>
<polygon fill="none" stroke="black" points="454.604,-122.462 444.263,-120.157 450.91,-128.408 454.604,-122.462"/>
</g>
<!-- \\CryptoManana\\Exceptions\\BreachAttemptException -->
<g id="node25" class="node"><title>\\CryptoManana\\Exceptions\\BreachAttemptException</title>
<polygon fill="none" stroke="black" points="710,-1420 545,-1420 545,-1384 710,-1384 710,-1420"/>
<text text-anchor="middle" x="627.5" y="-1399.2" font-family="Courier,monospace" font-size="11.00">BreachAttemptException</text>
</g>
<!-- \\CryptoManana\\Exceptions\\BreachAttemptException&#45;&gt;\\CryptoManana\\Core\\Abstractions\\ErrorHandling\\AbstractException -->
<g id="edge15" class="edge"><title>\\CryptoManana\\Exceptions\\BreachAttemptException&#45;&gt;\\CryptoManana\\Core\\Abstractions\\ErrorHandling\\AbstractException</title>
<path fill="none" stroke="black" d="M544.805,-1392.36C536.035,-1388.22 528.101,-1382.6 522,-1375 436.867,-1268.98 547.16,-269.656 479,-152 472.815,-141.323 463.344,-132.611 453.044,-125.628"/>
<polygon fill="none" stroke="black" points="454.592,-122.469 444.251,-120.164 450.898,-128.415 454.592,-122.469"/>
</g>
<!-- \\CryptoManana\\Exceptions\\CryptographyException -->
<g id="node26" class="node"><title>\\CryptoManana\\Exceptions\\CryptographyException</title>
<polygon fill="none" stroke="black" points="706.5,-1366 548.5,-1366 548.5,-1330 706.5,-1330 706.5,-1366"/>
<text text-anchor="middle" x="627.5" y="-1345.2" font-family="Courier,monospace" font-size="11.00">CryptographyException</text>
</g>
<!-- \\CryptoManana\\Exceptions\\CryptographyException&#45;&gt;\\CryptoManana\\Core\\Abstractions\\ErrorHandling\\AbstractException -->
<g id="edge16" class="edge"><title>\\CryptoManana\\Exceptions\\CryptographyException&#45;&gt;\\CryptoManana\\Core\\Abstractions\\ErrorHandling\\AbstractException</title>
<path fill="none" stroke="black" d="M548.403,-1339.95C538.215,-1335.69 528.929,-1329.61 522,-1321 440.539,-1219.72 544.245,-264.415 479,-152 472.806,-141.328 463.332,-132.618 453.031,-125.636"/>
<polygon fill="none" stroke="black" points="454.58,-122.477 444.238,-120.172 450.885,-128.423 454.58,-122.477"/>
</g>
<!-- \\CryptoManana\\Exceptions\\IncompatibleException -->
<g id="node27" class="node"><title>\\CryptoManana\\Exceptions\\IncompatibleException</title>
<polygon fill="none" stroke="black" points="706.5,-1312 548.5,-1312 548.5,-1276 706.5,-1276 706.5,-1312"/>
<text text-anchor="middle" x="627.5" y="-1291.2" font-family="Courier,monospace" font-size="11.00">IncompatibleException</text>
</g>
<!-- \\CryptoManana\\Exceptions\\IncompatibleException&#45;&gt;\\CryptoManana\\Core\\Abstractions\\ErrorHandling\\AbstractException -->
<g id="edge17" class="edge"><title>\\CryptoManana\\Exceptions\\IncompatibleException&#45;&gt;\\CryptoManana\\Core\\Abstractions\\ErrorHandling\\AbstractException</title>
<path fill="none" stroke="black" d="M548.416,-1285.93C538.226,-1281.68 528.937,-1275.61 522,-1267 444.211,-1170.46 541.331,-259.174 479,-152 472.797,-141.334 463.319,-132.626 453.017,-125.644"/>
<polygon fill="none" stroke="black" points="454.565,-122.485 444.224,-120.18 450.871,-128.431 454.565,-122.485"/>
</g>
<!-- \\CryptoManana\\Exceptions\\MaliciousPayloadException -->
<g id="node28" class="node"><title>\\CryptoManana\\Exceptions\\MaliciousPayloadException</title>
<polygon fill="none" stroke="black" points="720,-1258 535,-1258 535,-1222 720,-1222 720,-1258"/>
<text text-anchor="middle" x="627.5" y="-1237.2" font-family="Courier,monospace" font-size="11.00">MaliciousPayloadException</text>
</g>
<!-- \\CryptoManana\\Exceptions\\MaliciousPayloadException&#45;&gt;\\CryptoManana\\Core\\Abstractions\\ErrorHandling\\AbstractException -->
<g id="edge18" class="edge"><title>\\CryptoManana\\Exceptions\\MaliciousPayloadException&#45;&gt;\\CryptoManana\\Core\\Abstractions\\ErrorHandling\\AbstractException</title>
<path fill="none" stroke="black" d="M534.682,-1224.57C529.947,-1221.34 525.649,-1217.52 522,-1213 447.882,-1121.2 538.416,-253.933 479,-152 472.786,-141.34 463.304,-132.634 453.002,-125.653"/>
<polygon fill="none" stroke="black" points="454.55,-122.494 444.209,-120.189 450.855,-128.44 454.55,-122.494"/>
</g>
<!-- \\CryptoManana\\Exceptions\\UnsupportedException -->
<g id="node29" class="node"><title>\\CryptoManana\\Exceptions\\UnsupportedException</title>
<polygon fill="none" stroke="black" points="703.5,-1204 551.5,-1204 551.5,-1168 703.5,-1168 703.5,-1204"/>
<text text-anchor="middle" x="627.5" y="-1183.2" font-family="Courier,monospace" font-size="11.00">UnsupportedException</text>
</g>
<!-- \\CryptoManana\\Exceptions\\UnsupportedException&#45;&gt;\\CryptoManana\\Core\\Abstractions\\ErrorHandling\\AbstractException -->
<g id="edge19" class="edge"><title>\\CryptoManana\\Exceptions\\UnsupportedException&#45;&gt;\\CryptoManana\\Core\\Abstractions\\ErrorHandling\\AbstractException</title>
<path fill="none" stroke="black" d="M551.465,-1176.92C540.063,-1172.32 529.59,-1165.64 522,-1156 452.923,-1068.27 535.341,-248.401 479,-152 472.774,-141.347 463.287,-132.644 452.983,-125.664"/>
<polygon fill="none" stroke="black" points="454.531,-122.505 444.19,-120.2 450.837,-128.451 454.531,-122.505"/>
</g>
<!-- \\CryptoManana\\Factories\\ExceptionFactory -->
<g id="node30" class="node"><title>\\CryptoManana\\Factories\\ExceptionFactory</title>
<polygon fill="none" stroke="black" points="690,-1124 565,-1124 565,-1088 690,-1088 690,-1124"/>
<text text-anchor="middle" x="627.5" y="-1103.2" font-family="Courier,monospace" font-size="11.00">ExceptionFactory</text>
</g>
<!-- \\CryptoManana\\Factories\\ExceptionFactory&#45;&gt;\\CryptoManana\\Core\\Abstractions\\DesignPatterns\\AbstractFactory -->
<g id="edge20" class="edge"><title>\\CryptoManana\\Factories\\ExceptionFactory&#45;&gt;\\CryptoManana\\Core\\Abstractions\\DesignPatterns\\AbstractFactory</title>
<path fill="none" stroke="black" d="M564.908,-1102.12C548.929,-1098.18 533.109,-1091.19 522,-1079 420.972,-968.18 402.215,-469.276 399.081,-344.404"/>
<polygon fill="none" stroke="black" points="402.574,-344.055 398.838,-334.141 395.576,-344.221 402.574,-344.055"/>
</g>
<!-- \\CryptoManana\\Factories\\RandomnessFactory -->
<g id="node31" class="node"><title>\\CryptoManana\\Factories\\RandomnessFactory</title>
<polygon fill="none" stroke="black" points="693,-1070 562,-1070 562,-1034 693,-1034 693,-1070"/>
<text text-anchor="middle" x="627.5" y="-1049.2" font-family="Courier,monospace" font-size="11.00">RandomnessFactory</text>
</g>
<!-- \\CryptoManana\\Factories\\RandomnessFactory&#45;&gt;\\CryptoManana\\Core\\Abstractions\\DesignPatterns\\AbstractFactory -->
<g id="edge21" class="edge"><title>\\CryptoManana\\Factories\\RandomnessFactory&#45;&gt;\\CryptoManana\\Core\\Abstractions\\DesignPatterns\\AbstractFactory</title>
<path fill="none" stroke="black" d="M611.98,-1033.63C589.326,-1004.06 545.718,-943.29 522,-885 441.705,-687.662 409.913,-429.586 401.184,-344.538"/>
<polygon fill="none" stroke="black" points="404.646,-343.973 400.167,-334.371 397.68,-344.67 404.646,-343.973"/>
</g>
<!-- \\CryptoManana\\Randomness\\CryptoRandom -->
<g id="node32" class="node"><title>\\CryptoManana\\Randomness\\CryptoRandom</title>
<polygon fill="none" stroke="black" points="676.5,-1716 578.5,-1716 578.5,-1680 676.5,-1680 676.5,-1716"/>
<text text-anchor="middle" x="627.5" y="-1695.2" font-family="Courier,monospace" font-size="11.00">CryptoRandom</text>
</g>
<!-- \\CryptoManana\\Randomness\\CryptoRandom&#45;&gt;\\CryptoManana\\Core\\Abstractions\\Randomness\\AbstractGenerator -->
<g id="edge22" class="edge"><title>\\CryptoManana\\Randomness\\CryptoRandom&#45;&gt;\\CryptoManana\\Core\\Abstractions\\Randomness\\AbstractGenerator</title>
<path fill="none" stroke="black" d="M578.286,-1697.74C557.706,-1694.93 535.389,-1687.76 522,-1671 422.177,-1546.01 558.819,-370.623 479,-232 472.843,-221.307 463.384,-212.588 453.087,-205.604"/>
<polygon fill="none" stroke="black" points="454.635,-202.445 444.294,-200.14 450.94,-208.391 454.635,-202.445"/>
</g>
<!-- \\CryptoManana\\Randomness\\CryptoRandom&#45;&gt;\\CryptoManana\\Core\\Interfaces\\Randomness\\SeedableGeneratorInterface -->
<g id="edge23" class="edge"><title>\\CryptoManana\\Randomness\\CryptoRandom&#45;&gt;\\CryptoManana\\Core\\Interfaces\\Randomness\\SeedableGeneratorInterface</title>
<path fill="none" stroke="black" stroke-dasharray="1,5" d="M578.343,-1713.57C528.097,-1726.57 449.649,-1737.33 398.5,-1698"/>
</g>
<!-- \\CryptoManana\\Randomness\\PseudoRandom -->
<g id="node33" class="node"><title>\\CryptoManana\\Randomness\\PseudoRandom</title>
<polygon fill="none" stroke="black" points="676.5,-1770 578.5,-1770 578.5,-1734 676.5,-1734 676.5,-1770"/>
<text text-anchor="middle" x="627.5" y="-1749.2" font-family="Courier,monospace" font-size="11.00">PseudoRandom</text>
</g>
<!-- \\CryptoManana\\Randomness\\PseudoRandom&#45;&gt;\\CryptoManana\\Core\\Abstractions\\Randomness\\AbstractGenerator -->
<g id="edge24" class="edge"><title>\\CryptoManana\\Randomness\\PseudoRandom&#45;&gt;\\CryptoManana\\Core\\Abstractions\\Randomness\\AbstractGenerator</title>
<path fill="none" stroke="black" d="M578.278,-1751.74C557.696,-1748.94 535.38,-1741.77 522,-1725 418.504,-1595.27 561.734,-375.865 479,-232 472.849,-221.304 463.392,-212.583 453.095,-205.599"/>
<polygon fill="none" stroke="black" points="454.643,-202.44 444.302,-200.135 450.949,-208.386 454.643,-202.44"/>
</g>
<!-- \\CryptoManana\\Randomness\\PseudoRandom&#45;&gt;\\CryptoManana\\Core\\Interfaces\\Randomness\\SeedableGeneratorInterface -->
<g id="edge25" class="edge"><title>\\CryptoManana\\Randomness\\PseudoRandom&#45;&gt;\\CryptoManana\\Core\\Interfaces\\Randomness\\SeedableGeneratorInterface</title>
<path fill="none" stroke="black" stroke-dasharray="1,5" d="M578.445,-1751.78C528.646,-1749.19 450.903,-1738.29 398.5,-1698"/>
</g>
<!-- \\CryptoManana\\Randomness\\QuasiRandom -->
<g id="node34" class="node"><title>\\CryptoManana\\Randomness\\QuasiRandom</title>
<polygon fill="none" stroke="black" points="673,-1662 582,-1662 582,-1626 673,-1626 673,-1662"/>
<text text-anchor="middle" x="627.5" y="-1641.2" font-family="Courier,monospace" font-size="11.00">QuasiRandom</text>
</g>
<!-- \\CryptoManana\\Randomness\\QuasiRandom&#45;&gt;\\CryptoManana\\Core\\Abstractions\\Randomness\\AbstractGenerator -->
<g id="edge26" class="edge"><title>\\CryptoManana\\Randomness\\QuasiRandom&#45;&gt;\\CryptoManana\\Core\\Abstractions\\Randomness\\AbstractGenerator</title>
<path fill="none" stroke="black" d="M581.935,-1642.85C560.336,-1639.78 536.082,-1632.1 522,-1614 427.665,-1492.74 555.742,-365.09 479,-232 472.836,-221.311 463.375,-212.593 453.077,-205.609"/>
<polygon fill="none" stroke="black" points="454.625,-202.451 444.284,-200.146 450.93,-208.396 454.625,-202.451"/>
</g>
<!-- \\CryptoManana\\Randomness\\QuasiRandom&#45;&gt;\\CryptoManana\\Core\\Interfaces\\Randomness\\SeedableGeneratorInterface -->
<g id="edge27" class="edge"><title>\\CryptoManana\\Randomness\\QuasiRandom&#45;&gt;\\CryptoManana\\Core\\Interfaces\\Randomness\\SeedableGeneratorInterface</title>
<path fill="none" stroke="black" stroke-dasharray="1,5" d="M581.818,-1655.5C516.485,-1672.18 402.178,-1700.83 398.5,-1698"/>
<path fill="none" stroke="black" stroke-dasharray="1,5" d="M396.5,-1698C88.4394,-1461.13 513.825,-1139.32 276,-832 266.958,-820.316 254.707,-811.341 241.459,-804.454"/>
<polygon fill="none" stroke="black" points="242.688,-801.162 232.156,-800.012 239.672,-807.479 242.688,-801.162"/>
</g>
</g>
</svg>
